<?xml version="1.0" encoding="utf-8"?>
<!-- Generator: Adobe Illustrator 27.9.0, SVG Export Plug-In . SVG Version: 6.00 Build 0)  -->
<svg version="1.1" id="Layer_1" xmlns="http://www.w3.org/2000/svg" xmlns:xlink="http://www.w3.org/1999/xlink" x="0px" y="0px"
	 viewBox="0 0 64 64" style="enable-background:new 0 0 64 64;" xml:space="preserve">
<style type="text/css">
	.st0{stroke:#000000;stroke-width:0.75;stroke-miterlimit:10;}
	.st1{stroke:#000000;stroke-width:2;stroke-miterlimit:10;}
</style>
<g>
	<circle class="st0" cx="47.3" cy="16.7" r="3.5"/>
	<path class="st1" d="M32,17.5c-8,0-14.5,6.5-14.5,14.5S24,46.5,32,46.5S46.5,40,46.5,32S40,17.5,32,17.5z M32,41.9
		c-5.5,0-9.9-4.5-9.9-9.9s4.5-9.9,9.9-9.9s9.9,4.5,9.9,9.9S37.5,41.9,32,41.9z"/>
	<path class="st1" d="M61,20.8c-0.1-2.8-0.5-5.1-1.4-7.3c-0.8-2.2-2-3.9-3.6-5.6c-1.6-1.6-3.4-2.7-5.6-3.6c-2.2-0.8-4.4-1.3-7.3-1.4
		C40.3,2.8,39.3,2.8,32,2.8s-8.3,0-11.2,0.2c-2.8,0.1-5.1,0.5-7.3,1.4S9.6,6.4,7.9,8s-2.7,3.4-3.6,5.6c-0.8,2.2-1.3,4.4-1.4,7.3
		C2.8,23.7,2.8,24.7,2.8,32s0,8.3,0.2,11.2c0.1,2.8,0.5,5.1,1.4,7.3c0.8,2.2,2,3.9,3.6,5.6s3.4,2.7,5.6,3.6c2.2,0.8,4.4,1.3,7.3,1.4
		c2.8,0.1,3.8,0.1,11.1,0.1s8.3,0,11.2-0.2c2.8-0.1,5.1-0.5,7.3-1.4c2.2-0.8,3.9-2,5.6-3.6c1.6-1.6,2.7-3.4,3.6-5.6
		c0.8-2.2,1.3-4.4,1.4-7.3c0.1-2.8,0.1-3.8,0.1-11.1S61.2,23.7,61,20.8z M56.5,42.9c-0.1,2.4-0.5,4.1-1.1,5.8
		c-0.6,1.6-1.4,2.8-2.6,4c-1.2,1.2-2.4,2-4,2.6c-1.6,0.6-3.5,1-5.8,1.1c-2.7,0.2-3.7,0.2-10.9,0.2s-8.2,0-10.9-0.2
		c-2.4-0.1-4.1-0.5-5.8-1.1c-1.6-0.6-2.8-1.4-4-2.6c-1.2-1.2-2-2.4-2.6-4c-0.6-1.6-1-3.5-1.1-5.8C7.4,40.1,7.4,39.2,7.4,32
		s0-8.1,0.2-10.9c0.1-2.4,0.5-4.1,1.1-5.8c0.6-1.6,1.4-2.8,2.6-4s2.4-2,4-2.6c1.6-0.6,3.5-1,5.8-1.1c2.7-0.2,3.7-0.2,10.9-0.2
		s8.2,0,10.9,0.2c2.4,0.1,4.1,0.5,5.8,1.1c1.6,0.6,2.8,1.4,4,2.6c1.2,1.2,2,2.4,2.6,4c0.6,1.6,1,3.5,1.1,5.8
		c0.2,2.7,0.2,3.7,0.2,10.9S56.6,40.2,56.5,42.9z"/>
</g>
</svg>
