<?xml version="1.0" encoding="utf-8"?>
<!-- Generator: Adobe Illustrator 27.9.0, SVG Export Plug-In . SVG Version: 6.00 Build 0)  -->
<svg version="1.1" id="Layer_1" xmlns="http://www.w3.org/2000/svg" xmlns:xlink="http://www.w3.org/1999/xlink" x="0px" y="0px"
	 viewBox="0 0 468.3 468.3" style="enable-background:new 0 0 468.3 468.3;" xml:space="preserve">
<style type="text/css">
	.st0{fill:#050505;stroke:#000000;stroke-miterlimit:10;}
</style>
<path class="st0" d="M234,59.3c54.8,0,100.5,45.7,100.6,100.6c0,12.9,0.4,24.7,1.1,35.6c0.4,6.7,6.1,11.7,12.5,11.7
	c0.9,0,1.9-0.1,2.9-0.3l17.2-4c0.7-0.2,1.5-0.3,2.2-0.3c4.4,0,8.4,3,9.4,7.4c1.4,6.2-2.1,12.5-8.2,14.7l-26.1,10.5
	c-6.6,2.7-10.1,9.8-8.3,16.7c20.9,77.3,79.3,69.3,79.3,79.4c0,12.7-44,14.4-48,18.4c-4,4-0.2,23.3-9.1,27c-1.7,0.7-4.1,0.9-7,0.9
	c-6.7,0-16.2-1.3-26.1-1.3c-8.7,0-17.7,1-25.6,4.7c-21.1,9.7-41.4,27.9-66.6,27.9s-45.5-18.2-66.6-27.9c-8-3.7-17-4.7-25.6-4.7
	c-10,0-19.5,1.3-26.1,1.3c-2.9,0-5.3-0.2-7-0.9c-8.9-3.7-5.1-23.1-9.1-27c-4-4-48-5.8-48-18.4c0-10.1,58.4-2,79.3-79.4
	c1.9-6.9-1.7-14-8.3-16.7l-26.1-10.5c-6-2.1-9.5-8.4-8.2-14.7c1-4.4,5-7.4,9.4-7.4c0.7,0,1.5,0.1,2.2,0.3l17.2,4
	c1,0.2,1.9,0.3,2.9,0.3c6.4,0,12-5,12.5-11.7c0.7-10.9,1.1-22.8,1.1-35.6C133.9,105,179.2,59.3,234,59.3 M234,37.5L234,37.5
	L234,37.5c-16.4,0-32.3,3.3-47.4,9.8c-14.5,6.2-27.5,15.1-38.7,26.4c-11.2,11.3-20,24.3-26.2,38.8c-6.4,15.1-9.7,31.1-9.7,47.4
	c0,8-0.2,15.8-0.5,23.3l-6.4-1.5c-2.3-0.5-4.8-0.8-7.2-0.8c-7,0-13.8,2.3-19.3,6.6c-5.7,4.5-9.8,10.8-11.3,17.9
	c-3.7,16.8,5.6,33.8,21.6,39.8l19.1,7.7c-12.7,38.9-36,46.3-51.8,51.4c-4.2,1.3-7.8,2.5-11.2,4.2c-13.7,6.8-15.2,18.3-15.2,22.9
	c0,8.9,4.2,17,11.8,22.8c3.8,2.9,8.5,5.3,14.4,7.3c8,2.8,17.3,4.5,24.8,5.9c0.4,2.8,0.9,5.8,1.8,8.8c3.7,12.6,11.6,18.2,17.6,20.7
	c5.7,2.4,11.5,2.7,15.4,2.7c3.8,0,7.9-0.3,12.1-0.6c4.6-0.3,9.3-0.7,14-0.7c7.3,0,12.7,0.9,16.5,2.6c5.3,2.4,10.9,5.7,16.8,9.2
	c16.5,9.7,35.3,20.7,58.9,20.7s42.4-11,58.9-20.7c5.9-3.5,11.6-6.8,16.8-9.2c3.9-1.8,9.3-2.6,16.5-2.6c4.7,0,9.4,0.4,14,0.7
	c4.3,0.3,8.3,0.6,12.1,0.6c3.9,0,9.8-0.3,15.4-2.7c6-2.5,13.9-8.1,17.6-20.7c0.9-3,1.4-6,1.8-8.8c7.5-1.4,16.8-3.2,24.8-5.9
	c5.9-2,10.6-4.4,14.4-7.3c7.6-5.8,11.8-13.9,11.8-22.8c0-4.6-1.5-16.1-15.2-22.9c-3.4-1.7-7-2.9-11.2-4.2
	c-15.7-5-39.1-12.5-51.8-51.4l19.1-7.7c16.1-6,25.4-22.9,21.6-39.8c-1.6-7.1-5.6-13.4-11.3-17.9c-5.5-4.3-12.4-6.6-19.3-6.6
	c-2.4,0-4.8,0.3-7.2,0.8l-6.4,1.5c-0.3-7.5-0.5-15.3-0.5-23.3c0-16.4-3.3-32.4-9.8-47.5c-6.2-14.5-15.1-27.6-26.3-38.8
	c-11.3-11.3-24.3-20.1-38.8-26.3C266.3,40.8,250.4,37.5,234,37.5L234,37.5z"/>
<g>
	<path d="M234,37.5c16.4,0,32.3,3.3,47.4,9.8c14.5,6.2,27.6,15.1,38.8,26.3c11.3,11.3,20.1,24.3,26.3,38.8
		c6.5,15.1,9.8,31.1,9.8,47.5c0,8,0.2,15.8,0.5,23.3l6.4-1.5c2.3-0.5,4.8-0.8,7.2-0.8c7,0,13.8,2.4,19.3,6.6
		c5.7,4.5,9.8,10.8,11.3,17.9c3.7,16.8-5.6,33.8-21.6,39.8l-19.1,7.7c12.7,38.9,36,46.3,51.8,51.4c4.2,1.3,7.8,2.5,11.2,4.2
		c13.7,6.8,15.2,18.3,15.2,22.9c0,8.9-4.2,17-11.8,22.8c-3.8,2.9-8.5,5.3-14.4,7.3c-8,2.8-17.3,4.5-24.8,5.9
		c-0.4,2.8-0.9,5.8-1.8,8.8c-3.7,12.6-11.6,18.2-17.6,20.7c-5.7,2.4-11.5,2.7-15.4,2.7c-3.8,0-7.9-0.3-12.1-0.6
		c-4.6-0.3-9.3-0.7-14-0.7c-7.3,0-12.7,0.9-16.5,2.6c-5.3,2.4-10.9,5.7-16.8,9.2c-16.5,9.7-35.3,20.7-58.9,20.7s-42.4-11-58.9-20.7
		c-5.9-3.5-11.6-6.8-16.8-9.2c-3.9-1.8-9.3-2.6-16.5-2.6c-4.7,0-9.4,0.4-14,0.7c-4.3,0.3-8.3,0.6-12.1,0.6c-3.9,0-9.8-0.3-15.4-2.7
		c-6-2.5-13.9-8.1-17.6-20.7c-0.9-3-1.4-6-1.8-8.8c-7.5-1.4-16.8-3.2-24.8-5.9c-5.9-2-10.6-4.4-14.4-7.3
		c-7.6-5.8-11.8-13.9-11.8-22.8c0-4.6,1.5-16.1,15.2-22.9c3.4-1.7,7-2.9,11.2-4.2c15.7-5,39.1-12.5,51.8-51.4l-19.1-7.7
		c-16.1-6-25.4-22.9-21.6-39.8c1.6-7.1,5.6-13.4,11.3-17.9c5.5-4.3,12.4-6.6,19.3-6.6c2.4,0,4.8,0.3,7.2,0.8l6.4,1.5
		c0.3-7.5,0.5-15.3,0.5-23.3c0-16.4,3.3-32.3,9.7-47.4c6.2-14.5,15-27.6,26.2-38.8c11.2-11.3,24.2-20.1,38.7-26.4
		C201.7,40.8,217.6,37.5,234,37.5L234,37.5L234,37.5 M234,12.5L234,12.5L234,12.5L234,12.5c-19.8,0-39.1,4-57.3,11.8
		c-17.4,7.5-33.1,18.2-46.6,31.7c-13.5,13.5-24,29.2-31.5,46.7C91.3,120,87.4,138.3,87,157c-8.6,1.7-16.8,5.4-23.7,10.8
		c-10.3,8-17.6,19.5-20.4,32.2c-3.1,14-1,28.7,5.8,41.3c5.7,10.5,14.5,19,25.1,24.5c-7.4,9-16.1,11.8-25.1,14.7
		c-4.7,1.5-9.6,3.1-14.7,5.6c-18.2,9-29,26-29,45.3c0,16.6,7.9,32.1,21.6,42.7c6,4.6,13,8.2,21.4,11.1c4.2,1.4,8.5,2.6,12.7,3.6
		c5.7,14.5,16.2,25.4,30,31.2c11,4.6,21.6,4.6,25.1,4.6c4.7,0,9.4-0.3,14-0.7c4.1-0.3,8.4-0.6,12.2-0.6c4,0,5.9,0.4,6.3,0.5
		c4.1,1.9,9.1,4.8,14.3,7.9c18.4,10.8,41.2,24.2,71.6,24.2c30.4,0,53.3-13.4,71.6-24.2c5.3-3.1,10.2-6,14.4-7.9
		c0.5-0.1,2.3-0.5,6.3-0.5c3.7,0,7.8,0.3,12.1,0.6c4.6,0.3,9.3,0.7,14,0.7c3.5,0,14.1,0,25.1-4.6c13.8-5.8,24.3-16.8,30-31.2
		c4.2-1,8.5-2.2,12.7-3.6c8.5-2.9,15.5-6.5,21.4-11.1c13.8-10.5,21.6-26.1,21.6-42.6c0-19.4-10.9-36.3-29-45.3
		c-5.1-2.5-10-4.1-14.7-5.6c-9-2.9-17.7-5.7-25.1-14.7c10.6-5.4,19.3-13.9,25.1-24.5c6.9-12.6,9-27.3,5.8-41.3
		c-2.8-12.7-10.1-24.2-20.4-32.2c-7-5.4-15.1-9.1-23.7-10.8c-0.4-18.8-4.4-37-11.8-54.4c-7.5-17.4-18.1-33.1-31.6-46.7
		c-13.5-13.5-29.2-24.2-46.6-31.6C273,16.5,253.8,12.5,234,12.5L234,12.5z"/>
</g>
</svg>
